<mxfile host="app.diagrams.net" modified="2023-08-29T15:47:03.891Z" agent="Mozilla/5.0 (Windows NT 10.0; Win64; x64) AppleWebKit/537.36 (KHTML, like Gecko) Chrome/116.0.0.0 Safari/537.36" etag="f47k9psX--gfJwSxGr3f" version="21.6.9" type="device">
  <diagram name="PÃ¡gina-1" id="bdPdBsN6eaygsPji57R4">
    <mxGraphModel dx="1434" dy="758" grid="1" gridSize="10" guides="1" tooltips="1" connect="1" arrows="1" fold="1" page="1" pageScale="1" pageWidth="827" pageHeight="1169" math="0" shadow="0">
      <root>
        <mxCell id="0" />
        <mxCell id="1" parent="0" />
        <mxCell id="54mzAyB_yFH7jinsxo0W-1" value="Passenger functionality diagram" style="text;strokeColor=none;fillColor=none;html=1;fontSize=24;fontStyle=1;verticalAlign=middle;align=center;" vertex="1" parent="1">
          <mxGeometry x="510" y="40" width="100" height="40" as="geometry" />
        </mxCell>
        <mxCell id="54mzAyB_yFH7jinsxo0W-3" value="Project: Uber ride sharing system" style="text;align=center;fontStyle=1;verticalAlign=middle;spacingLeft=3;spacingRight=3;strokeColor=none;rotatable=0;points=[[0,0.5],[1,0.5]];portConstraint=eastwest;html=1;" vertex="1" parent="1">
          <mxGeometry x="430" y="70" width="80" height="26" as="geometry" />
        </mxCell>
        <mxCell id="54mzAyB_yFH7jinsxo0W-4" value="Passenger" style="shape=umlActor;verticalLabelPosition=bottom;verticalAlign=top;html=1;outlineConnect=0;" vertex="1" parent="1">
          <mxGeometry x="40" y="401" width="50" height="80" as="geometry" />
        </mxCell>
        <mxCell id="54mzAyB_yFH7jinsxo0W-7" value="Search for trip details" style="ellipse;whiteSpace=wrap;html=1;" vertex="1" parent="1">
          <mxGeometry x="250" y="120" width="120" height="80" as="geometry" />
        </mxCell>
        <mxCell id="54mzAyB_yFH7jinsxo0W-8" value="Request ride" style="ellipse;whiteSpace=wrap;html=1;" vertex="1" parent="1">
          <mxGeometry x="250" y="241" width="120" height="80" as="geometry" />
        </mxCell>
        <mxCell id="54mzAyB_yFH7jinsxo0W-9" value="Cancel ride" style="ellipse;whiteSpace=wrap;html=1;" vertex="1" parent="1">
          <mxGeometry x="250" y="361" width="120" height="80" as="geometry" />
        </mxCell>
        <mxCell id="54mzAyB_yFH7jinsxo0W-10" value="Book ride" style="ellipse;whiteSpace=wrap;html=1;" vertex="1" parent="1">
          <mxGeometry x="250" y="481" width="120" height="80" as="geometry" />
        </mxCell>
        <mxCell id="54mzAyB_yFH7jinsxo0W-11" value="Share trip details" style="ellipse;whiteSpace=wrap;html=1;" vertex="1" parent="1">
          <mxGeometry x="250" y="601" width="120" height="80" as="geometry" />
        </mxCell>
        <mxCell id="54mzAyB_yFH7jinsxo0W-12" value="Rate ride" style="ellipse;whiteSpace=wrap;html=1;" vertex="1" parent="1">
          <mxGeometry x="250" y="720" width="120" height="80" as="geometry" />
        </mxCell>
        <mxCell id="54mzAyB_yFH7jinsxo0W-13" value="Update payment information" style="ellipse;whiteSpace=wrap;html=1;" vertex="1" parent="1">
          <mxGeometry x="250" y="840" width="120" height="80" as="geometry" />
        </mxCell>
        <mxCell id="54mzAyB_yFH7jinsxo0W-14" value="Leave tip" style="ellipse;whiteSpace=wrap;html=1;" vertex="1" parent="1">
          <mxGeometry x="250" y="961" width="120" height="80" as="geometry" />
        </mxCell>
        <mxCell id="54mzAyB_yFH7jinsxo0W-15" value="&amp;lt;&amp;lt;system&amp;gt;&amp;gt;&lt;br&gt;Navigation Engine" style="shape=umlActor;verticalLabelPosition=bottom;verticalAlign=top;html=1;outlineConnect=0;" vertex="1" parent="1">
          <mxGeometry x="690" y="120" width="50" height="80" as="geometry" />
        </mxCell>
        <mxCell id="54mzAyB_yFH7jinsxo0W-17" value="Driver" style="shape=umlActor;verticalLabelPosition=bottom;verticalAlign=top;html=1;outlineConnect=0;" vertex="1" parent="1">
          <mxGeometry x="690" y="510" width="50" height="80" as="geometry" />
        </mxCell>
        <mxCell id="54mzAyB_yFH7jinsxo0W-18" value="" style="endArrow=none;html=1;rounded=0;entryX=0;entryY=1;entryDx=0;entryDy=0;" edge="1" parent="1" target="54mzAyB_yFH7jinsxo0W-7">
          <mxGeometry width="50" height="50" relative="1" as="geometry">
            <mxPoint x="90" y="401" as="sourcePoint" />
            <mxPoint x="270" y="180" as="targetPoint" />
          </mxGeometry>
        </mxCell>
        <mxCell id="54mzAyB_yFH7jinsxo0W-19" value="" style="endArrow=none;html=1;rounded=0;entryX=0.05;entryY=0.713;entryDx=0;entryDy=0;entryPerimeter=0;" edge="1" parent="1" target="54mzAyB_yFH7jinsxo0W-8">
          <mxGeometry width="50" height="50" relative="1" as="geometry">
            <mxPoint x="90" y="401" as="sourcePoint" />
            <mxPoint x="140" y="351" as="targetPoint" />
          </mxGeometry>
        </mxCell>
        <mxCell id="54mzAyB_yFH7jinsxo0W-20" value="" style="endArrow=none;html=1;rounded=0;entryX=0;entryY=0.5;entryDx=0;entryDy=0;" edge="1" parent="1" target="54mzAyB_yFH7jinsxo0W-9">
          <mxGeometry width="50" height="50" relative="1" as="geometry">
            <mxPoint x="90" y="401" as="sourcePoint" />
            <mxPoint x="140" y="351" as="targetPoint" />
          </mxGeometry>
        </mxCell>
        <mxCell id="54mzAyB_yFH7jinsxo0W-21" value="" style="endArrow=none;html=1;rounded=0;entryX=0;entryY=0.5;entryDx=0;entryDy=0;" edge="1" parent="1" target="54mzAyB_yFH7jinsxo0W-10">
          <mxGeometry width="50" height="50" relative="1" as="geometry">
            <mxPoint x="90" y="401" as="sourcePoint" />
            <mxPoint x="247" y="508" as="targetPoint" />
          </mxGeometry>
        </mxCell>
        <mxCell id="54mzAyB_yFH7jinsxo0W-22" value="" style="endArrow=none;html=1;rounded=0;entryX=0;entryY=0.375;entryDx=0;entryDy=0;entryPerimeter=0;" edge="1" parent="1" target="54mzAyB_yFH7jinsxo0W-11">
          <mxGeometry width="50" height="50" relative="1" as="geometry">
            <mxPoint x="90" y="400" as="sourcePoint" />
            <mxPoint x="257" y="518" as="targetPoint" />
          </mxGeometry>
        </mxCell>
        <mxCell id="54mzAyB_yFH7jinsxo0W-23" value="" style="endArrow=none;html=1;rounded=0;" edge="1" parent="1" target="54mzAyB_yFH7jinsxo0W-12">
          <mxGeometry width="50" height="50" relative="1" as="geometry">
            <mxPoint x="90" y="401" as="sourcePoint" />
            <mxPoint x="170" y="471" as="targetPoint" />
          </mxGeometry>
        </mxCell>
        <mxCell id="54mzAyB_yFH7jinsxo0W-24" value="" style="endArrow=none;html=1;rounded=0;entryX=0;entryY=0.5;entryDx=0;entryDy=0;" edge="1" parent="1" target="54mzAyB_yFH7jinsxo0W-13">
          <mxGeometry width="50" height="50" relative="1" as="geometry">
            <mxPoint x="90" y="401" as="sourcePoint" />
            <mxPoint x="248" y="868" as="targetPoint" />
          </mxGeometry>
        </mxCell>
        <mxCell id="54mzAyB_yFH7jinsxo0W-25" value="" style="endArrow=none;html=1;rounded=0;entryX=0;entryY=0.5;entryDx=0;entryDy=0;" edge="1" parent="1" target="54mzAyB_yFH7jinsxo0W-14">
          <mxGeometry width="50" height="50" relative="1" as="geometry">
            <mxPoint x="90" y="401" as="sourcePoint" />
            <mxPoint x="150" y="481" as="targetPoint" />
          </mxGeometry>
        </mxCell>
        <mxCell id="54mzAyB_yFH7jinsxo0W-26" value="" style="endArrow=none;html=1;rounded=0;" edge="1" parent="1" target="54mzAyB_yFH7jinsxo0W-17">
          <mxGeometry width="50" height="50" relative="1" as="geometry">
            <mxPoint x="364" y="770" as="sourcePoint" />
            <mxPoint x="650" y="560" as="targetPoint" />
          </mxGeometry>
        </mxCell>
        <mxCell id="54mzAyB_yFH7jinsxo0W-27" value="" style="endArrow=none;html=1;rounded=0;exitX=1;exitY=0.5;exitDx=0;exitDy=0;" edge="1" parent="1">
          <mxGeometry width="50" height="50" relative="1" as="geometry">
            <mxPoint x="370" y="516" as="sourcePoint" />
            <mxPoint x="690" y="565" as="targetPoint" />
          </mxGeometry>
        </mxCell>
        <mxCell id="54mzAyB_yFH7jinsxo0W-28" value="" style="endArrow=none;html=1;rounded=0;" edge="1" parent="1" target="54mzAyB_yFH7jinsxo0W-15">
          <mxGeometry width="50" height="50" relative="1" as="geometry">
            <mxPoint x="370" y="515" as="sourcePoint" />
            <mxPoint x="420" y="465" as="targetPoint" />
          </mxGeometry>
        </mxCell>
        <mxCell id="54mzAyB_yFH7jinsxo0W-29" value="" style="endArrow=none;html=1;rounded=0;exitX=1;exitY=0.5;exitDx=0;exitDy=0;" edge="1" parent="1" source="54mzAyB_yFH7jinsxo0W-8">
          <mxGeometry width="50" height="50" relative="1" as="geometry">
            <mxPoint x="600" y="226" as="sourcePoint" />
            <mxPoint x="690" y="186" as="targetPoint" />
          </mxGeometry>
        </mxCell>
        <mxCell id="54mzAyB_yFH7jinsxo0W-30" value="" style="endArrow=none;html=1;rounded=0;" edge="1" parent="1">
          <mxGeometry width="50" height="50" relative="1" as="geometry">
            <mxPoint x="370" y="156.5" as="sourcePoint" />
            <mxPoint x="690" y="187" as="targetPoint" />
          </mxGeometry>
        </mxCell>
        <mxCell id="54mzAyB_yFH7jinsxo0W-31" value="" style="endArrow=none;html=1;rounded=0;exitX=1;exitY=0.738;exitDx=0;exitDy=0;exitPerimeter=0;dashed=1;dashPattern=8 8;" edge="1" parent="1">
          <mxGeometry width="50" height="50" relative="1" as="geometry">
            <mxPoint x="370" y="400.03999999999996" as="sourcePoint" />
            <mxPoint x="420" y="400" as="targetPoint" />
          </mxGeometry>
        </mxCell>
        <mxCell id="54mzAyB_yFH7jinsxo0W-32" value="" style="endArrow=none;html=1;rounded=0;dashed=1;dashPattern=8 8;" edge="1" parent="1">
          <mxGeometry width="50" height="50" relative="1" as="geometry">
            <mxPoint x="420" y="401" as="sourcePoint" />
            <mxPoint x="420" y="280" as="targetPoint" />
          </mxGeometry>
        </mxCell>
        <mxCell id="54mzAyB_yFH7jinsxo0W-34" value="&lt;font style=&quot;font-size: 12px;&quot;&gt;&amp;lt;&amp;lt;include&amp;gt;&amp;gt;&lt;/font&gt;" style="edgeLabel;html=1;align=center;verticalAlign=middle;resizable=0;points=[];" vertex="1" connectable="0" parent="54mzAyB_yFH7jinsxo0W-32">
          <mxGeometry x="-0.0083" y="2" relative="1" as="geometry">
            <mxPoint as="offset" />
          </mxGeometry>
        </mxCell>
        <mxCell id="54mzAyB_yFH7jinsxo0W-33" value="" style="endArrow=open;html=1;rounded=0;dashed=1;dashPattern=8 8;endFill=0;" edge="1" parent="1">
          <mxGeometry width="50" height="50" relative="1" as="geometry">
            <mxPoint x="414" y="280.5" as="sourcePoint" />
            <mxPoint x="374" y="280.5" as="targetPoint" />
          </mxGeometry>
        </mxCell>
      </root>
    </mxGraphModel>
  </diagram>
</mxfile>
